<?xml version="1.0" encoding="UTF-8"?>
<svg width="60px" height="60px" viewBox="0 0 61 62" version="1.1" xmlns="http://www.w3.org/2000/svg" xmlns:xlink="http://www.w3.org/1999/xlink">
    <!-- Generator: Sketch 53.1 (72631) - https://sketchapp.com -->
    <title>Group 10</title>
    <desc>Created with Sketch.</desc>
    <g id="Symbols" stroke="none" stroke-width="1" fill="none" fill-rule="evenodd">
        <g id="Group-10" transform="translate(30.597750, 30.651986) scale(-1, 1) rotate(180.000000) translate(-30.597750, -30.651986) translate(0.097750, 0.151986)">
            <path d="M60.4818196,30.2410169 C60.4818196,13.5332242 46.9385357,0 30.2474378,0 C13.5565541,0 4.29878355e-13,13.5464944 4.29878355e-13,30.2410169 C4.29878355e-13,46.9488093 13.5432839,60.4820336 30.2343817,60.4820336 C46.9252654,60.4820336 60.4818196,46.9488093 60.4818196,30.2410169" id="path22" fill="#070405"/>
            <polygon id="path26" fill="#01B0AD" points="15.1335431 34.8247922 15.1335431 31.2287888 12.302073 31.2287888 12.302073 34.8247922 9.49650113 39.2578868 12.5760379 39.2578868 13.15008 38.1855711 13.7243361 37.0218623 14.2985922 38.1855711 14.8726343 39.2578868 17.9260588 39.2578868"/>
            <path d="M20.2488746,36.7600973 C20.0530325,36.4463219 19.9616395,35.9362763 19.9616395,35.2303886 C19.9616395,34.5371289 20.0530325,34.0270833 20.2488746,33.7002518 C20.4445026,33.3862623 20.7445798,33.2163185 21.1491061,33.2163185 C21.5666886,33.2163185 21.8669798,33.3734202 22.0495517,33.7002518 C22.2323377,34.0140272 22.3235166,34.5240728 22.3235166,35.2303886 C22.3235166,35.9232201 22.2323377,36.4332657 22.0495517,36.7600973 C21.8669798,37.0740868 21.5666886,37.2440306 21.1491061,37.2440306 C20.7445798,37.2440306 20.4445026,37.0869289 20.2488746,36.7600973 M24.137464,38.277178 C24.8551236,37.5580201 25.2074253,36.5379289 25.2074253,35.2303886 C25.2074253,33.9224202 24.8551236,32.9155992 24.137464,32.1833851 C23.4195903,31.4642273 22.4279658,31.0980132 21.1491061,31.0980132 C20.3141553,31.0980132 19.5834395,31.2549009 18.9698009,31.5819466 C18.3565904,31.9087781 17.8869974,32.3794413 17.5605939,32.993936 C17.2344045,33.6086448 17.0648887,34.3541289 17.0648887,35.2303886 C17.0648887,36.093378 17.2344045,36.8386482 17.5605939,37.4664131 C17.8869974,38.0809078 18.3565904,38.5648411 18.9698009,38.8784025 C19.5834395,39.2054481 20.3008851,39.3623358 21.1491061,39.3623358 C22.4279658,39.375606 23.4326464,39.009392 24.137464,38.277178" id="path30" fill="#01B0AD" fill-rule="nonzero"/>
            <path d="M33.5587531,34.680982 C33.5587531,32.3011259 32.2668374,31.1110908 29.6832199,31.1110908 C27.0993884,31.1110908 25.8076867,32.3011259 25.8076867,34.680982 L25.8076867,39.2579082 L28.6522129,39.2579082 L28.6522129,34.4716557 C28.6522129,34.0664872 28.7436059,33.765768 28.9133357,33.5564416 C29.0830655,33.3473294 29.3439743,33.2424522 29.6832199,33.2424522 C30.0224655,33.2424522 30.2833743,33.3473294 30.4531041,33.5564416 C30.6358901,33.765768 30.7140129,34.0664872 30.7140129,34.4716557 L30.7140129,39.2579082 L33.545483,39.2579082 L33.545483,34.680982 L33.5587531,34.680982 Z" id="path34" fill="#01B0AD"/>
            <polygon id="path38" fill="#01B0AD" points="42.1188937 31.2288316 39.0652552 31.2288316 37.1470728 34.8770596 36.7166483 35.8579823 36.690536 35.8579823 36.7427605 34.2103403 36.7427605 31.2288316 34.2764343 31.2288316 34.2764343 39.2579296 37.3298588 39.2579296 39.2480412 35.5962174 39.6786798 34.6287789 39.704792 34.6287789 39.6527815 36.2764209 39.6527815 39.2579296 42.1056236 39.2579296 42.1056236 31.2288316"/>
            <path d="M46.8947654,35.753255 L50.6005689,35.753255 L50.6005689,31.2287674 L48.734825,31.2287674 L48.6434321,32.1441954 C48.2258496,31.4509358 47.5079759,31.1112621 46.477183,31.1112621 C45.7725795,31.1112621 45.1460988,31.2679358 44.5851129,31.5819253 C44.0241269,31.8957007 43.5804322,32.3533077 43.2540287,32.9678024 C42.9278392,33.5825112 42.7583234,34.3279954 42.7583234,35.2170971 C42.7583234,36.5246374 43.1236813,37.5447286 43.8543971,38.2771567 C44.5851129,39.0093707 45.6030637,39.3755847 46.9078216,39.3755847 C47.8994461,39.3755847 48.6954426,39.2054268 49.2827548,38.8655391 C49.8698531,38.5254374 50.3266039,37.9631672 50.6530074,37.1785146 L48.0169514,36.2239181 C47.9127163,36.9039076 47.5732567,37.2440093 47.0122707,37.2440093 C46.5424637,37.2440093 46.2032181,37.0869076 45.9812637,36.760076 C45.7595234,36.4463006 45.6550742,35.936255 45.6550742,35.2303673 C45.6550742,34.4848831 45.7725795,33.9485112 46.007376,33.6349498 C46.2423865,33.3211743 46.6077444,33.1510164 47.1165058,33.1510164 C47.4690216,33.1510164 47.7558286,33.2162971 47.9647268,33.3601287 C48.1736251,33.5039603 48.2780742,33.7132866 48.2780742,33.9878936 L48.2780742,34.0009498 L46.9339339,34.0009498 L46.9339339,35.753255 L46.8947654,35.753255 Z" id="path42" fill="#01B0AD"/>
            <path d="M9.07536581,21.5370662 C8.24041495,21.5370662 7.50969918,21.6939539 6.89627464,22.0209995 C6.28285009,22.3478311 5.81325712,22.8184942 5.48685362,23.432989 C5.16066415,24.0476977 4.99114837,24.7931819 4.99114837,25.6692275 C4.99114837,26.532431 5.16066415,27.2777011 5.48685362,27.905466 C5.81325712,28.5199607 6.28285009,29.0038941 6.89627464,29.3176695 C7.50969918,29.6445011 8.22714477,29.8013888 9.07536581,29.8013888 C10.0149798,29.8013888 10.8109763,29.6053327 11.4764114,29.1999502 C12.1418464,28.7945678 12.5465868,28.1931292 12.7161026,27.3690941 L10.2889447,26.4144976 C10.223664,26.9114871 10.1061588,27.2385327 9.93664298,27.4084766 C9.76691316,27.5784204 9.50621842,27.6698134 9.15370265,27.6698134 C8.7361202,27.6698134 8.42298688,27.5131397 8.20124653,27.1863081 C7.99234829,26.8592625 7.88789918,26.3492169 7.88789918,25.6692275 C7.88789918,24.9761819 7.99234829,24.4791924 8.18797635,24.1523609 C8.38403248,23.8253153 8.69695178,23.6684275 9.12759036,23.6684275 C9.50621842,23.6684275 9.78018334,23.7600346 9.94969911,23.9301924 C10.1194289,24.1001363 10.223664,24.3747433 10.2758886,24.7670696 L12.7811692,24.1262486 C12.3638008,22.4000556 11.1371658,21.5370662 9.07536581,21.5370662" id="path46" fill="#FFFFFF"/>
            <path d="M17.5050732,24.9499198 L16.8657504,27.6307093 L16.826582,27.6307093 L16.5132346,26.2707303 L16.1872592,24.96319 L17.5050732,24.96319 L17.5050732,24.9499198 Z M17.9095995,23.1976146 L15.7564066,23.1976146 L15.3779925,21.6676919 L12.5595786,21.6676919 L15.1562522,29.6967899 L18.5489223,29.6967899 L21.158652,21.6676919 L18.2749574,21.6676919 L17.9095995,23.1976146 Z" id="path50" fill="#FFFFFF" fill-rule="nonzero"/>
            <path d="M26.1043179,26.3361394 C26.2607775,26.4538586 26.3393284,26.6501288 26.3393284,26.9114657 C26.3393284,27.1730165 26.2607775,27.3562306 26.1043179,27.487006 C25.9478583,27.6047253 25.6997916,27.669792 25.3474898,27.669792 L24.3950337,27.669792 L24.3950337,26.1661955 L25.3474898,26.1661955 C25.6997916,26.1531394 25.9478583,26.2184201 26.1043179,26.3361394 M29.1707985,26.8722972 C29.1707985,26.0093078 28.8837775,25.3421604 28.3225775,24.8847675 C27.7615915,24.4269464 26.9133705,24.204564 25.8172968,24.204564 L24.3950337,24.204564 L24.3950337,21.654764 L21.5633496,21.654764 L21.5633496,29.6838621 L25.8042407,29.6838621 C28.0486126,29.6838621 29.1707985,28.7421077 29.1707985,26.8722972" id="path54" fill="#FFFFFF" fill-rule="nonzero"/>
            <polygon id="path56" fill="#FFFFFF" points="29.7710599 29.6967042 32.6025301 29.6967042 32.6025301 21.6676062 29.7710599 21.6676062"/>
            <polygon id="path60" fill="#FFFFFF" points="41.1105958 27.6046611 38.6053152 27.6046611 38.6053152 21.6546999 35.7736311 21.6546999 35.7736311 27.6046611 33.2681364 27.6046611 33.2681364 29.6837979 41.1105958 29.6837979"/>
            <path d="M44.777402,24.9499198 L44.1380792,27.6307093 L44.0989108,27.6307093 L43.7855634,26.2707303 L43.459588,24.96319 L44.777402,24.96319 L44.777402,24.9499198 Z M45.1819283,23.1976146 L43.0289494,23.1976146 L42.6503214,21.6676919 L39.8319074,21.6676919 L42.428581,29.6967899 L45.8212511,29.6967899 L48.4309809,21.6676919 L45.5472862,21.6676919 L45.1819283,23.1976146 Z" id="path64" fill="#FFFFFF" fill-rule="nonzero"/>
            <polygon id="path68" fill="#FFFFFF" points="55.4906498 23.7338581 55.4906498 21.6547213 49.0312851 21.6547213 49.0312851 29.6838193 51.8629692 29.6838193 51.8629692 23.7338581"/>
            <path d="M54.4597712,29.6837765 L54.7467923,28.9252362 L55.0207572,29.6837765 L55.4644519,29.6837765 L55.4644519,28.4415169 L55.1513186,28.4415169 L55.1513186,29.3697871 L54.7990169,28.4415169 L54.6815116,28.4415169 L54.3294239,29.3697871 L54.3294239,28.4415169 L54.0160765,28.4415169 L54.0160765,29.6837765 L54.4597712,29.6837765 Z M53.7551678,29.6837765 L53.7551678,29.4222257 L53.3765397,29.4222257 L53.3765397,28.4284608 L53.0372941,28.4284608 L53.0372941,29.4222257 L52.6590941,29.4222257 L52.6590941,29.6837765 L53.7551678,29.6837765 Z" id="path72" fill="#FFFFFF" fill-rule="nonzero"/>
            <polygon id="path76" fill="#FFFFFF" points="20.6777794 14.3190327 19.7437303 14.3190327 17.8683549 17.3780221 17.3976918 18.2752571 17.3906286 18.2752571 17.4199514 17.4518642 17.4199514 14.3190327 16.6992953 14.3190327 16.6992953 19.1724922 17.6256391 19.1724922 19.4937373 16.120566 19.9714636 15.2160537 19.9787408 15.2160537 19.9496321 16.0396607 19.9496321 19.1724922 20.6777794 19.1724922"/>
            <polygon id="path80" fill="#FFFFFF" points="28.6708554 14.9954049 28.6708554 14.319054 25.0530204 14.319054 25.0530204 19.1725135 28.5681186 19.1725135 28.5681186 18.4959486 25.8395993 18.4959486 25.8395993 17.0987276 27.9720309 17.0987276 27.9720309 16.4369312 25.8395993 16.4369312 25.8395993 14.9954049"/>
            <polygon id="path84" fill="#FFFFFF" points="35.3918352 14.3190327 34.200944 16.2087484 33.0091967 14.3190327 32.1048984 14.3190327 33.7891405 16.7825765 32.2371721 19.1724922 33.1710072 19.1724922 34.2886984 17.3709589 35.4068177 19.1724922 36.2595334 19.1724922 34.6934387 16.8116852 36.3256703 14.3190327"/>
            <polygon id="path88" fill="#FFFFFF" points="43.7824814 18.4960557 42.1202849 18.4960557 42.1202849 14.318947 41.333706 14.318947 41.333706 18.4960557 39.6717236 18.4960557 39.6717236 19.1724065 43.7824814 19.1724065"/>
        </g>
    </g>
</svg>